<svg width="64" height="64" viewBox="0 0 64 64" fill="none" xmlns="http://www.w3.org/2000/svg">
<circle cx="32" cy="32" r="30" stroke="white" stroke-width="4"/>
<path d="M47.7195 27.1803C47.8168 32.8364 43.904 37.5425 39.4204 37.6092C36.4698 37.6531 27.4316 37.0925 25.9591 34.1436C25.1942 32.6116 31.1592 29.4225 31.1259 27.4887C31.0285 21.8326 34.5842 17.1934 39.0678 17.1267C43.5513 17.06 48.0766 18.8237 47.7195 27.1803Z" fill="white"/>
<path d="M18.8247 28.5066C13.8305 24.8592 14.544 19.8325 15.2574 18.8906C15.6062 18.4302 18.8226 21.8103 22.7487 23.8644C26.8532 26.012 31.6669 26.5171 31.6669 26.5171C31.6669 26.5171 23.2554 31.7425 18.8247 28.5066Z" fill="white"/>
<path fill-rule="evenodd" clip-rule="evenodd" d="M18.3496 19.6726C19.6871 20.7161 21.4059 22.0204 23.2736 22.9976C25.211 24.0112 27.3393 24.6476 29.004 25.0305C29.832 25.2209 30.5352 25.3463 31.0288 25.4238C31.2754 25.4625 31.469 25.4891 31.5991 25.5059C31.6641 25.5143 31.7131 25.5202 31.7449 25.5239L31.7794 25.5278L31.7866 25.5286L34.6931 25.8336L32.2615 27.3442L31.6669 26.5171C32.2615 27.3442 32.2618 27.344 32.2615 27.3442L32.2581 27.3463L32.2517 27.3503L32.2297 27.3637C32.211 27.3751 32.1844 27.3912 32.1503 27.4116C32.082 27.4524 31.9835 27.5105 31.8578 27.5824C31.6066 27.7262 31.2457 27.9259 30.7998 28.1543C29.9108 28.6096 28.6696 29.1861 27.2744 29.6597C25.8863 30.1309 24.2988 30.5166 22.7289 30.5553C21.1522 30.5942 19.5248 30.283 18.1635 29.2888C15.4421 27.3013 14.2466 24.9086 13.8476 22.8614C13.6495 21.8447 13.6472 20.9125 13.7496 20.1537C13.8462 19.4387 14.0526 18.7533 14.3824 18.318C14.6458 17.9701 15.0422 17.8536 15.3549 17.8533C15.6151 17.8531 15.8286 17.9284 15.9467 17.9763C16.1949 18.0771 16.447 18.2384 16.6608 18.3859C17.0344 18.6437 17.5128 19.0181 18.04 19.4306C18.1415 19.51 18.2448 19.5909 18.3496 19.6726ZM28.5805 26.9824C28.5505 26.9756 28.5203 26.9687 28.4899 26.9617C26.7217 26.5551 24.3908 25.8652 22.2237 24.7313C20.1654 23.6543 18.313 22.2414 16.9736 21.1965C16.8597 21.1077 16.7505 21.0223 16.6458 20.9404C16.3577 20.715 16.1037 20.5163 15.881 20.3469C15.8784 20.3648 15.8758 20.383 15.8734 20.4014C15.7974 20.964 15.7951 21.6931 15.9537 22.5067C16.2681 24.1201 17.213 26.0645 19.4858 27.7244C20.3399 28.3481 21.4255 28.5972 22.6721 28.5665C23.9255 28.5356 25.2716 28.2216 26.5402 27.7909C27.2744 27.5417 27.9669 27.2588 28.5805 26.9824Z" fill="white"/>
<path d="M23.2937 35.5671C17.003 34.7532 14.8966 30.0763 15.0028 28.9286C15.0547 28.3675 19.6646 29.7825 24.1694 29.7198C28.8789 29.6542 33.3115 27.8377 33.3115 27.8377C33.3115 27.8377 28.8747 36.2892 23.2937 35.5671Z" fill="white"/>
<path fill-rule="evenodd" clip-rule="evenodd" d="M18.0979 28.157C19.8188 28.4326 22.0103 28.755 24.1534 28.7251C26.3763 28.6942 28.5598 28.2479 30.2055 27.7996C31.024 27.5766 31.6996 27.3558 32.168 27.1917C32.402 27.1097 32.5837 27.0421 32.7052 26.9958C32.7659 26.9726 32.8114 26.9547 32.8409 26.9431L32.8728 26.9303L32.8795 26.9276L35.5559 25.8308L34.2733 28.274L33.3115 27.8377C34.2733 28.274 34.2735 28.2737 34.2733 28.274L34.2715 28.2774L34.2681 28.2838L34.2564 28.3058C34.2464 28.3243 34.2322 28.3507 34.2137 28.3843C34.1769 28.4515 34.1232 28.5478 34.0536 28.6688C33.9144 28.9106 33.7108 29.252 33.4492 29.658C32.9278 30.4674 32.1676 31.5465 31.2188 32.6087C30.2748 33.6655 29.112 34.7417 27.7767 35.5099C26.4355 36.2814 24.8609 36.7742 23.1462 36.5524C19.7183 36.1088 17.3893 34.6011 15.9356 33.0191C15.2137 32.2334 14.7068 31.4291 14.3843 30.7256C14.0803 30.0626 13.8874 29.3738 13.9365 28.8434C13.9757 28.4195 14.255 28.1333 14.5251 27.9867C14.7497 27.8648 14.975 27.8299 15.103 27.816C15.372 27.7869 15.6772 27.8083 15.9419 27.8357C16.4042 27.8836 17.0204 27.9831 17.6993 28.0928C17.8301 28.1139 17.9632 28.1354 18.0979 28.157ZM30.897 29.6842C30.8674 29.6924 30.8375 29.7006 30.8075 29.7088C29.0595 30.185 26.672 30.6798 24.1854 30.7144C21.8237 30.7473 19.4578 30.3936 17.7345 30.1176C17.5881 30.0942 17.4474 30.0715 17.3126 30.0497C16.9417 29.9899 16.6145 29.9371 16.3304 29.8949C16.3378 29.9116 16.3455 29.9286 16.3533 29.9456C16.5924 30.4673 16.9854 31.0982 17.5632 31.727C18.7088 32.9737 20.5784 34.2114 23.4413 34.5818C24.517 34.721 25.5899 34.4282 26.6503 33.8181C27.7165 33.2048 28.7094 32.3035 29.5721 31.3377C30.0715 30.7787 30.5166 30.2102 30.897 29.6842Z" fill="white"/>
<path d="M25.4606 41.6961C18.9589 41.583 17.0034 37.3341 17.1716 36.2256C17.2538 35.6836 21.9772 36.5491 26.6656 36.0129C31.567 35.4524 36.2686 33.247 36.2686 33.247C36.2686 33.247 31.2288 41.7965 25.4606 41.6961Z" fill="white"/>
<path fill-rule="evenodd" clip-rule="evenodd" d="M20.2441 35.1235C22.018 35.205 24.2902 35.2823 26.5349 35.0256C28.8699 34.7586 31.1832 34.0952 32.9304 33.488C33.7997 33.1859 34.5194 32.901 35.0198 32.6926C35.2698 32.5884 35.4646 32.5035 35.5954 32.4454C35.6608 32.4163 35.7101 32.394 35.7423 32.3792L35.7777 32.363L35.7855 32.3594L35.7865 32.3589L38.8632 30.9157L37.2072 33.725L36.2686 33.247C37.2072 33.725 37.2073 33.7247 37.2072 33.725L37.2053 33.7282L37.2015 33.7345L37.1885 33.7563C37.1774 33.7748 37.1614 33.8012 37.1408 33.835C37.0994 33.9024 37.0392 33.9994 36.9612 34.1217C36.8053 34.366 36.5777 34.712 36.2868 35.1256C35.7065 35.9507 34.8674 37.0548 33.8365 38.1606C32.8093 39.2624 31.5662 40.3935 30.1723 41.2485C28.7812 42.1018 27.1726 42.7208 25.4406 42.6907C21.9186 42.6294 19.534 41.4378 18.0504 40.0303C17.3176 39.335 16.8131 38.595 16.5008 37.9302C16.2071 37.3053 16.0294 36.6302 16.1119 36.0866C16.1748 35.6718 16.4604 35.4207 16.67 35.298C16.8631 35.1849 17.0598 35.1355 17.1856 35.1103C17.4453 35.0584 17.7473 35.0462 18.0229 35.0444C18.4983 35.0413 19.131 35.0711 19.8318 35.1042C19.9669 35.1106 20.1045 35.1171 20.2441 35.1235ZM33.449 35.431C31.6444 36.0461 29.2563 36.7189 26.7963 37.0002C24.3525 37.2797 21.9189 37.1924 20.1385 37.1106C19.9878 37.1037 19.8429 37.0969 19.7039 37.0903C19.1989 37.0666 18.7709 37.0465 18.4188 37.038C18.4324 37.0692 18.4468 37.1012 18.4622 37.1339C18.6723 37.5812 19.0316 38.1183 19.5793 38.6379C20.6569 39.6603 22.5009 40.6497 25.4807 40.7015C26.6327 40.7216 27.8172 40.3095 28.9934 39.588C30.1668 38.8682 31.2651 37.8808 32.219 36.8577C32.6693 36.3747 33.0817 35.8899 33.449 35.431ZM17.636 37.0553C17.6369 37.0551 17.6379 37.0549 17.639 37.0547C17.6323 37.0563 17.6309 37.0563 17.636 37.0553Z" fill="white"/>
<path d="M22.7586 45.749C18.7755 45.749 13.5038 44.4423 13.5685 43.292C13.6001 42.7296 24.889 41.77 26.6726 41.1068C34.6806 38.1294 45.5792 31.8225 45.5792 31.8225C45.5792 31.8225 43.1172 45.749 22.7586 45.749Z" fill="white"/>
<path fill-rule="evenodd" clip-rule="evenodd" d="M25.385 40.3933C25.8639 40.3026 26.1506 40.2295 26.2751 40.1832C30.2112 38.7198 34.8878 36.4252 38.604 34.4812C40.4568 33.512 42.061 32.6352 43.2017 32.0008C43.7719 31.6837 44.2259 31.4274 44.5369 31.2506C44.6924 31.1623 44.8121 31.0938 44.8927 31.0476L44.9838 30.9952L45.0133 30.9782L45.5792 31.8225C46.6352 31.9838 46.6351 31.9845 46.6349 31.9852L46.6346 31.987L46.6338 31.9914L46.6314 32.0042C46.6295 32.0143 46.6269 32.0278 46.6236 32.0446C46.6169 32.078 46.6071 32.1245 46.594 32.183C46.5676 32.3 46.5272 32.4654 46.469 32.6724C46.3526 33.0863 46.1645 33.6676 45.8731 34.3606C45.291 35.7452 44.2923 37.5863 42.6213 39.4272C39.2488 43.1426 33.2392 46.7438 22.7585 46.7438C20.661 46.7438 18.2502 46.4025 16.357 45.9098C15.4153 45.6647 14.5472 45.3683 13.895 45.0296C13.5722 44.8619 13.2494 44.6571 12.9973 44.4049C12.7508 44.1581 12.4705 43.7604 12.4998 43.24C12.5228 42.83 12.7863 42.582 12.8956 42.4923C13.0225 42.3882 13.1535 42.3232 13.2359 42.2862C13.4079 42.2091 13.6049 42.1508 13.7811 42.1053C14.1478 42.0107 14.6398 41.9179 15.192 41.827C16.306 41.6438 17.7963 41.4479 19.3165 41.2519C19.5092 41.227 19.7026 41.2022 19.8958 41.1773C21.2373 41.0048 22.5766 40.8326 23.7103 40.6663C24.3586 40.5713 24.9282 40.4799 25.385 40.3933ZM45.5792 31.8225L46.6352 31.9838L47.018 29.818L45.0133 30.9782L45.5792 31.8225ZM43.7032 34.039C43.1691 35.21 42.3172 36.6771 40.9854 38.1443C38.0373 41.3922 32.6365 44.7543 22.7585 44.7542C20.873 44.7542 18.6564 44.4422 16.9341 43.994C16.5904 43.9045 16.2749 43.8118 15.9917 43.7181C17.0036 43.5617 18.2768 43.3945 19.6105 43.2225C19.802 43.1978 19.9947 43.1731 20.1878 43.1482C21.5264 42.9761 22.8883 42.801 24.0438 42.6316C24.7051 42.5346 25.3103 42.4379 25.8124 42.3428C26.2925 42.2519 26.7487 42.1499 27.07 42.0304C31.142 40.5165 35.9186 38.1689 39.6537 36.215C41.2226 35.3943 42.6148 34.6394 43.7032 34.039Z" fill="white"/>
<path d="M47.3627 19.2222C45.975 19.8141 44.5089 19.8854 44.5089 19.8854L45.9358 22.5668C45.9358 22.5668 47.2681 21.626 48.4329 20.5486C49.6791 19.3958 50.7577 18.096 50.5733 17.9246C50.3857 17.7502 48.9015 18.5659 47.3627 19.2222Z" fill="white"/>
<path fill-rule="evenodd" clip-rule="evenodd" d="M48.9658 18.8664C48.5176 19.075 48.0132 19.3096 47.5115 19.5236C46.7818 19.8349 46.0372 20.0072 45.4796 20.102C45.323 20.1286 45.1803 20.1492 45.0558 20.1652L46.061 22.0542C46.1875 21.9603 46.3435 21.8427 46.5195 21.7067C46.9937 21.3403 47.6092 20.8427 48.1813 20.3135C48.7949 19.7459 49.365 19.144 49.7559 18.6675C49.8286 18.5789 49.894 18.4959 49.9517 18.4194C49.854 18.4607 49.7466 18.5079 49.6302 18.5603C49.431 18.65 49.2065 18.7545 48.9658 18.8664ZM50.5003 18.2319C50.5 18.2322 50.4957 18.2326 50.4884 18.2324C50.4969 18.2315 50.5006 18.2316 50.5003 18.2319ZM50.2386 17.9616C50.2401 17.9495 50.2423 17.9475 50.2389 17.9604C50.2388 17.9608 50.2387 17.9612 50.2386 17.9616ZM46.1516 22.8308L45.8076 23.0737L43.9487 19.5806L44.49 19.5543L44.4924 19.5542L44.5027 19.5536C44.5122 19.553 44.5271 19.552 44.5469 19.5506C44.5864 19.5477 44.6456 19.5429 44.7215 19.5353C44.8733 19.5201 45.0911 19.4938 45.3513 19.4496C45.8736 19.3608 46.556 19.2015 47.214 18.9209C47.7072 18.7105 48.1866 18.4874 48.6264 18.2826C48.8711 18.1688 49.1035 18.0606 49.3192 17.9635C49.613 17.8312 49.88 17.7178 50.0901 17.6488C50.1934 17.6149 50.3016 17.5854 50.4019 17.5742C50.473 17.5662 50.6743 17.5495 50.8255 17.6901C50.9947 17.8474 50.9489 18.0536 50.9319 18.1181C50.907 18.2124 50.8588 18.3104 50.8062 18.4016C50.6984 18.5884 50.5287 18.8191 50.3232 19.0696C49.9094 19.5741 49.3171 20.1985 48.6846 20.7836C48.0918 21.3319 47.4588 21.8434 46.9756 22.2167C46.7336 22.4037 46.5283 22.5567 46.3833 22.6632C46.3107 22.7164 46.2532 22.7581 46.2136 22.7865L46.1681 22.8191L46.1561 22.8277L46.1516 22.8308Z" fill="white"/>
<path d="M48.2339 21.8633C46.7695 22.4522 45.2224 22.5231 45.2224 22.5231L46.7281 25.1907C46.7281 25.1907 48.134 24.2548 49.3631 23.1829C50.6782 22.036 51.8163 20.7428 51.6217 20.5723C51.4238 20.3989 49.8576 21.2104 48.2339 21.8633Z" fill="white"/>
<path fill-rule="evenodd" clip-rule="evenodd" d="M49.9084 21.5146C49.4358 21.7219 48.9046 21.9549 48.3755 22.1677C47.6087 22.4761 46.826 22.6468 46.2396 22.7408C46.0708 22.7679 45.9174 22.7887 45.7842 22.8047L46.8509 24.6945C46.9894 24.5977 47.1648 24.4734 47.3647 24.3278C47.8653 23.9631 48.5151 23.4678 49.1191 22.9411C49.7669 22.3761 50.3686 21.7771 50.7812 21.303C50.8589 21.2137 50.9286 21.1303 50.9899 21.0535C50.8761 21.0983 50.7493 21.1507 50.6107 21.2096C50.3998 21.299 50.1626 21.4031 49.9084 21.5146ZM51.2892 20.603C51.2891 20.6034 51.289 20.6038 51.2889 20.6042C51.2906 20.5939 51.2922 20.5923 51.2892 20.603ZM46.9359 25.4603L46.6027 25.6821L44.6471 22.2175L45.2047 22.1919L45.2073 22.1918L45.2184 22.1912C45.2287 22.1906 45.2446 22.1897 45.2656 22.1882C45.3077 22.1853 45.3706 22.1805 45.451 22.1729C45.612 22.1577 45.8429 22.1315 46.1184 22.0873C46.6716 21.9986 47.3948 21.8395 48.0922 21.559C48.613 21.3496 49.1199 21.1271 49.5844 20.9233C49.8424 20.8101 50.0873 20.7026 50.3143 20.6063C50.6243 20.4747 50.9047 20.3625 51.1246 20.2944C51.2328 20.2609 51.3441 20.2325 51.4456 20.2218C51.4966 20.2164 51.5597 20.2138 51.626 20.2237C51.6917 20.2337 51.7851 20.2598 51.8665 20.3311C52.0471 20.4893 51.9986 20.7025 51.9798 20.7698C51.953 20.8656 51.9014 20.9642 51.8459 21.0549C51.7318 21.2412 51.5527 21.4709 51.3359 21.72C50.8993 22.2218 50.2744 22.8428 49.6073 23.4247C48.9821 23.9699 48.3144 24.4785 47.8048 24.8498C47.5496 25.0357 47.333 25.1879 47.1801 25.2937C47.1035 25.3467 47.0429 25.3881 47.0012 25.4164L46.9532 25.4488L46.9405 25.4572L46.9359 25.4603Z" fill="white"/>
</svg>
