<svg width="64" height="64" viewBox="0 0 64 64" fill="none" xmlns="http://www.w3.org/2000/svg">
<path d="M27.5 58L27.5 62L35.5 62L35.5 58L27.5 58ZM42 24C44.2091 24 46 22.2091 46 20C46 17.7909 44.2091 16 42 16V24ZM37.5001 20L37.5001 16L37.5 16L37.5001 20ZM31.5 58C35.5 58 35.5 57.9999 35.5 57.9997C35.5 57.9995 35.5 57.9992 35.5 57.9987C35.5 57.9979 35.5 57.9966 35.5 57.9949C35.5 57.9915 35.5 57.9864 35.5 57.9797C35.5 57.9662 35.5 57.9461 35.5 57.9196C35.5 57.8665 35.5 57.7877 35.5 57.6847C35.5 57.4788 35.5 57.1763 35.5 56.79C35.5 56.0176 35.5 54.9102 35.5 53.5703C35.5 50.8906 35.5 47.2813 35.5 43.5625C35.5 36.125 35.5 28.25 35.5 26.5L27.5 26.5C27.5 28.25 27.5 36.125 27.5 43.5625C27.5 47.2813 27.5 50.8906 27.5 53.5703C27.5 54.9102 27.5 56.0176 27.5 56.79C27.5 57.1763 27.5 57.4788 27.5 57.6847C27.5 57.7877 27.5 57.8665 27.5 57.9196C27.5 57.9461 27.5 57.9662 27.5 57.9797C27.5 57.9864 27.5 57.9915 27.5 57.9949C27.5 57.9966 27.5 57.9979 27.5 57.9987C27.5 57.9991 27.5 57.9995 27.5 57.9997C27.5 57.9999 27.5 58 31.5 58ZM35.5 26.5C35.5 25.6922 35.7897 25.0281 36.1685 24.6047C36.5221 24.2095 36.9609 24 37.5001 24L37.5 16C31.3842 16 27.5 21.2208 27.5 26.5L35.5 26.5ZM37.5001 24C37.5079 24 37.5157 24 37.5234 24C37.5312 24 37.539 24 37.5468 24C37.5545 24 37.5623 24 37.57 24C37.5777 24 37.5855 24 37.5932 24C37.6009 24 37.6086 24 37.6162 24C37.6239 24 37.6316 24 37.6392 24C37.6469 24 37.6545 24 37.6622 24C37.6698 24 37.6774 24 37.685 24C37.6926 24 37.7002 24 37.7078 24C37.7153 24 37.7229 24 37.7304 24C37.738 24 37.7455 24 37.753 24C37.7606 24 37.7681 24 37.7756 24C37.7831 24 37.7905 24 37.798 24C37.8055 24 37.8129 24 37.8204 24C37.8278 24 37.8353 24 37.8427 24C37.8501 24 37.8575 24 37.8649 24C37.8723 24 37.8797 24 37.887 24C37.8944 24 37.9017 24 37.9091 24C37.9164 24 37.9237 24 37.9311 24C37.9384 24 37.9457 24 37.953 24C37.9602 24 37.9675 24 37.9748 24C37.982 24 37.9893 24 37.9965 24C38.0038 24 38.011 24 38.0182 24C38.0254 24 38.0326 24 38.0398 24C38.047 24 38.0541 24 38.0613 24C38.0685 24 38.0756 24 38.0827 24C38.0899 24 38.097 24 38.1041 24C38.1112 24 38.1183 24 38.1254 24C38.1325 24 38.1395 24 38.1466 24C38.1537 24 38.1607 24 38.1677 24C38.1748 24 38.1818 24 38.1888 24C38.1958 24 38.2028 24 38.2098 24C38.2167 24 38.2237 24 38.2307 24C38.2376 24 38.2446 24 38.2515 24C38.2584 24 38.2653 24 38.2723 24C38.2792 24 38.2861 24 38.2929 24C38.2998 24 38.3067 24 38.3135 24C38.3204 24 38.3272 24 38.3341 24C38.3409 24 38.3477 24 38.3545 24C38.3613 24 38.3681 24 38.3749 24C38.3817 24 38.3884 24 38.3952 24C38.402 24 38.4087 24 38.4154 24C38.4222 24 38.4289 24 38.4356 24C38.4423 24 38.449 24 38.4557 24C38.4623 24 38.469 24 38.4757 24C38.4823 24 38.489 24 38.4956 24C38.5022 24 38.5088 24 38.5155 24C38.5221 24 38.5287 24 38.5352 24C38.5418 24 38.5484 24 38.5549 24C38.5615 24 38.568 24 38.5746 24C38.5811 24 38.5876 24 38.5941 24C38.6007 24 38.6072 24 38.6136 24C38.6201 24 38.6266 24 38.6331 24C38.6395 24 38.646 24 38.6524 24C38.6588 24 38.6653 24 38.6717 24C38.6781 24 38.6845 24 38.6909 24C38.6973 24 38.7036 24 38.71 24C38.7164 24 38.7227 24 38.729 24C38.7354 24 38.7417 24 38.748 24C38.7543 24 38.7606 24 38.7669 24C38.7732 24 38.7795 24 38.7858 24C38.792 24 38.7983 24 38.8045 24C38.8108 24 38.817 24 38.8232 24C38.8294 24 38.8357 24 38.8418 24C38.848 24 38.8542 24 38.8604 24C38.8666 24 38.8727 24 38.8789 24C38.885 24 38.8912 24 38.8973 24C38.9034 24 38.9095 24 38.9156 24C38.9217 24 38.9278 24 38.9339 24C38.94 24 38.946 24 38.9521 24C38.9581 24 38.9642 24 38.9702 24C38.9762 24 38.9822 24 38.9882 24C38.9943 24 39.0002 24 39.0062 24C39.0122 24 39.0182 24 39.0241 24C39.0301 24 39.036 24 39.042 24C39.0479 24 39.0538 24 39.0598 24C39.0657 24 39.0716 24 39.0775 24C39.0833 24 39.0892 24 39.0951 24C39.101 24 39.1068 24 39.1127 24C39.1185 24 39.1243 24 39.1301 24C39.136 24 39.1418 24 39.1476 24C39.1534 24 39.1591 24 39.1649 24C39.1707 24 39.1765 24 39.1822 24C39.188 24 39.1937 24 39.1994 24C39.2051 24 39.2109 24 39.2166 24C39.2223 24 39.228 24 39.2336 24C39.2393 24 39.245 24 39.2507 24C39.2563 24 39.262 24 39.2676 24C39.2732 24 39.2789 24 39.2845 24C39.2901 24 39.2957 24 39.3013 24C39.3069 24 39.3124 24 39.318 24C39.3236 24 39.3291 24 39.3347 24C39.3402 24 39.3458 24 39.3513 24C39.3568 24 39.3623 24 39.3678 24C39.3733 24 39.3788 24 39.3843 24C39.3898 24 39.3952 24 39.4007 24C39.4061 24 39.4116 24 39.417 24C39.4224 24 39.4279 24 39.4333 24C39.4387 24 39.4441 24 39.4495 24C39.4549 24 39.4602 24 39.4656 24C39.471 24 39.4763 24 39.4817 24C39.487 24 39.4923 24 39.4977 24C39.503 24 39.5083 24 39.5136 24C39.5189 24 39.5242 24 39.5295 24C39.5347 24 39.54 24 39.5453 24C39.5505 24 39.5558 24 39.561 24C39.5662 24 39.5714 24 39.5767 24C39.5819 24 39.5871 24 39.5923 24C39.5974 24 39.6026 24 39.6078 24C39.613 24 39.6181 24 39.6233 24C39.6284 24 39.6335 24 39.6387 24C39.6438 24 39.6489 24 39.654 24C39.6591 24 39.6642 24 39.6693 24C39.6744 24 39.6794 24 39.6845 24C39.6895 24 39.6946 24 39.6996 24C39.7047 24 39.7097 24 39.7147 24C39.7197 24 39.7247 24 39.7297 24C39.7347 24 39.7397 24 39.7447 24C39.7496 24 39.7546 24 39.7596 24C39.7645 24 39.7695 24 39.7744 24C39.7793 24 39.7842 24 39.7891 24C39.7941 24 39.7989 24 39.8038 24C39.8087 24 39.8136 24 39.8185 24C39.8233 24 39.8282 24 39.833 24C39.8379 24 39.8427 24 39.8475 24C39.8524 24 39.8572 24 39.862 24C39.8668 24 39.8716 24 39.8764 24C39.8811 24 39.8859 24 39.8907 24C39.8954 24 39.9002 24 39.9049 24C39.9097 24 39.9144 24 39.9191 24C39.9238 24 39.9285 24 39.9332 24C39.9379 24 39.9426 24 39.9473 24C39.952 24 39.9566 24 39.9613 24C39.966 24 39.9706 24 39.9752 24C39.9799 24 39.9845 24 39.9891 24C39.9937 24 39.9983 24 40.0029 24C40.0075 24 40.0121 24 40.0167 24C40.0212 24 40.0258 24 40.0304 24C40.0349 24 40.0395 24 40.044 24C40.0485 24 40.053 24 40.0576 24C40.0621 24 40.0666 24 40.0711 24C40.0756 24 40.08 24 40.0845 24C40.089 24 40.0934 24 40.0979 24C40.1023 24 40.1068 24 40.1112 24C40.1156 24 40.1201 24 40.1245 24C40.1289 24 40.1333 24 40.1377 24C40.1421 24 40.1464 24 40.1508 24C40.1552 24 40.1596 24 40.1639 24C40.1683 24 40.1726 24 40.1769 24C40.1813 24 40.1856 24 40.1899 24C40.1942 24 40.1985 24 40.2028 24C40.2071 24 40.2113 24 40.2156 24C40.2199 24 40.2241 24 40.2284 24C40.2327 24 40.2369 24 40.2411 24C40.2454 24 40.2496 24 40.2538 24C40.258 24 40.2622 24 40.2664 24C40.2706 24 40.2748 24 40.2789 24C40.2831 24 40.2873 24 40.2914 24C40.2956 24 40.2997 24 40.3038 24C40.308 24 40.3121 24 40.3162 24C40.3203 24 40.3244 24 40.3285 24C40.3326 24 40.3367 24 40.3408 24C40.3448 24 40.3489 24 40.3529 24C40.357 24 40.361 24 40.3651 24C40.3691 24 40.3731 24 40.3772 24C40.3812 24 40.3852 24 40.3892 24C40.3932 24 40.3972 24 40.4011 24C40.4051 24 40.4091 24 40.413 24C40.417 24 40.4209 24 40.4249 24C40.4288 24 40.4327 24 40.4367 24C40.4406 24 40.4445 24 40.4484 24C40.4523 24 40.4562 24 40.4601 24C40.4639 24 40.4678 24 40.4717 24C40.4755 24 40.4794 24 40.4832 24C40.4871 24 40.4909 24 40.4947 24C40.4986 24 40.5024 24 40.5062 24C40.51 24 40.5138 24 40.5176 24C40.5213 24 40.5251 24 40.5289 24C40.5327 24 40.5364 24 40.5402 24C40.5439 24 40.5477 24 40.5514 24C40.5551 24 40.5588 24 40.5625 24C40.5663 24 40.57 24 40.5737 24C40.5773 24 40.581 24 40.5847 24C40.5884 24 40.592 24 40.5957 24C40.5994 24 40.603 24 40.6066 24C40.6103 24 40.6139 24 40.6175 24C40.6211 24 40.6248 24 40.6284 24C40.632 24 40.6355 24 40.6391 24C40.6427 24 40.6463 24 40.6498 24C40.6534 24 40.657 24 40.6605 24C40.6641 24 40.6676 24 40.6711 24C40.6746 24 40.6782 24 40.6817 24C40.6852 24 40.6887 24 40.6922 24C40.6957 24 40.6992 24 40.7026 24C40.7061 24 40.7096 24 40.713 24C40.7165 24 40.7199 24 40.7234 24C40.7268 24 40.7302 24 40.7336 24C40.7371 24 40.7405 24 40.7439 24C40.7473 24 40.7507 24 40.7541 24C40.7574 24 40.7608 24 40.7642 24C40.7675 24 40.7709 24 40.7742 24C40.7776 24 40.7809 24 40.7843 24C40.7876 24 40.7909 24 40.7942 24C40.7975 24 40.8008 24 40.8041 24C40.8074 24 40.8107 24 40.814 24C40.8173 24 40.8205 24 40.8238 24C40.8271 24 40.8303 24 40.8336 24C40.8368 24 40.84 24 40.8433 24C40.8465 24 40.8497 24 40.8529 24C40.8561 24 40.8593 24 40.8625 24C40.8657 24 40.8689 24 40.8721 24C40.8752 24 40.8784 24 40.8816 24C40.8847 24 40.8879 24 40.891 24C40.8941 24 40.8973 24 40.9004 24C40.9035 24 40.9066 24 40.9097 24C40.9128 24 40.9159 24 40.919 24C40.9221 24 40.9252 24 40.9282 24C40.9313 24 40.9344 24 40.9374 24C40.9405 24 40.9435 24 40.9466 24C40.9496 24 40.9526 24 40.9557 24C40.9587 24 40.9617 24 40.9647 24C40.9677 24 40.9707 24 40.9737 24C40.9767 24 40.9796 24 40.9826 24C40.9856 24 40.9885 24 40.9915 24C40.9944 24 40.9974 24 41.0003 24C41.0033 24 41.0062 24 41.0091 24C41.012 24 41.0149 24 41.0178 24C41.0207 24 41.0236 24 41.0265 24C41.0294 24 41.0323 24 41.0351 24C41.038 24 41.0409 24 41.0437 24C41.0466 24 41.0494 24 41.0523 24C41.0551 24 41.0579 24 41.0608 24C41.0636 24 41.0664 24 41.0692 24C41.072 24 41.0748 24 41.0776 24C41.0804 24 41.0831 24 41.0859 24C41.0887 24 41.0915 24 41.0942 24C41.097 24 41.0997 24 41.1025 24C41.1052 24 41.1079 24 41.1106 24C41.1134 24 41.1161 24 41.1188 24C41.1215 24 41.1242 24 41.1269 24C41.1296 24 41.1323 24 41.1349 24C41.1376 24 41.1403 24 41.1429 24C41.1456 24 41.1483 24 41.1509 24C41.1535 24 41.1562 24 41.1588 24C41.1614 24 41.164 24 41.1667 24C41.1693 24 41.1719 24 41.1745 24C41.1771 24 41.1797 24 41.1822 24C41.1848 24 41.1874 24 41.19 24C41.1925 24 41.1951 24 41.1976 24C41.2002 24 41.2027 24 41.2053 24C41.2078 24 41.2103 24 41.2128 24C41.2153 24 41.2179 24 41.2204 24C41.2229 24 41.2254 24 41.2278 24C41.2303 24 41.2328 24 41.2353 24C41.2378 24 41.2402 24 41.2427 24C41.2451 24 41.2476 24 41.25 24C41.2525 24 41.2549 24 41.2573 24C41.2598 24 41.2622 24 41.2646 24C41.267 24 41.2694 24 41.2718 24C41.2742 24 41.2766 24 41.279 24C41.2813 24 41.2837 24 41.2861 24C41.2884 24 41.2908 24 41.2932 24C41.2955 24 41.2978 24 41.3002 24C41.3025 24 41.3048 24 41.3072 24C41.3095 24 41.3118 24 41.3141 24C41.3164 24 41.3187 24 41.321 24C41.3233 24 41.3256 24 41.3279 24C41.3301 24 41.3324 24 41.3347 24C41.3369 24 41.3392 24 41.3414 24C41.3437 24 41.3459 24 41.3481 24C41.3504 24 41.3526 24 41.3548 24C41.357 24 41.3592 24 41.3614 24C41.3636 24 41.3658 24 41.368 24C41.3702 24 41.3724 24 41.3746 24C41.3767 24 41.3789 24 41.3811 24C41.3832 24 41.3854 24 41.3875 24C41.3897 24 41.3918 24 41.3939 24C41.3961 24 41.3982 24 41.4003 24C41.4024 24 41.4045 24 41.4066 24C41.4087 24 41.4108 24 41.4129 24C41.415 24 41.4171 24 41.4192 24C41.4212 24 41.4233 24 41.4254 24C41.4274 24 41.4295 24 41.4315 24C41.4336 24 41.4356 24 41.4376 24C41.4397 24 41.4417 24 41.4437 24C41.4457 24 41.4477 24 41.4498 24C41.4518 24 41.4538 24 41.4557 24C41.4577 24 41.4597 24 41.4617 24C41.4637 24 41.4656 24 41.4676 24C41.4696 24 41.4715 24 41.4735 24C41.4754 24 41.4774 24 41.4793 24C41.4812 24 41.4832 24 41.4851 24C41.487 24 41.4889 24 41.4908 24C41.4927 24 41.4946 24 41.4965 24C41.4984 24 41.5003 24 41.5022 24C41.5041 24 41.5059 24 41.5078 24C41.5097 24 41.5115 24 41.5134 24C41.5152 24 41.5171 24 41.5189 24C41.5208 24 41.5226 24 41.5244 24C41.5262 24 41.5281 24 41.5299 24C41.5317 24 41.5335 24 41.5353 24C41.5371 24 41.5389 24 41.5407 24C41.5425 24 41.5442 24 41.546 24C41.5478 24 41.5496 24 41.5513 24C41.5531 24 41.5548 24 41.5566 24C41.5583 24 41.5601 24 41.5618 24C41.5635 24 41.5653 24 41.567 24C41.5687 24 41.5704 24 41.5721 24C41.5738 24 41.5755 24 41.5772 24C41.5789 24 41.5806 24 41.5823 24C41.584 24 41.5857 24 41.5873 24C41.589 24 41.5907 24 41.5923 24C41.594 24 41.5956 24 41.5973 24C41.5989 24 41.6006 24 41.6022 24C41.6038 24 41.6054 24 41.6071 24C41.6087 24 41.6103 24 41.6119 24C41.6135 24 41.6151 24 41.6167 24C41.6183 24 41.6199 24 41.6215 24C41.623 24 41.6246 24 41.6262 24C41.6278 24 41.6293 24 41.6309 24C41.6324 24 41.634 24 41.6355 24C41.6371 24 41.6386 24 41.6401 24C41.6417 24 41.6432 24 41.6447 24C41.6462 24 41.6477 24 41.6493 24C41.6508 24 41.6523 24 41.6538 24C41.6553 24 41.6567 24 41.6582 24C41.6597 24 41.6612 24 41.6627 24C41.6641 24 41.6656 24 41.667 24C41.6685 24 41.67 24 41.6714 24C41.6729 24 41.6743 24 41.6757 24C41.6772 24 41.6786 24 41.68 24C41.6814 24 41.6829 24 41.6843 24C41.6857 24 41.6871 24 41.6885 24C41.6899 24 41.6913 24 41.6927 24C41.694 24 41.6954 24 41.6968 24C41.6982 24 41.6995 24 41.7009 24C41.7023 24 41.7036 24 41.705 24C41.7063 24 41.7077 24 41.709 24C41.7104 24 41.7117 24 41.713 24C41.7144 24 41.7157 24 41.717 24C41.7183 24 41.7196 24 41.7209 24C41.7222 24 41.7235 24 41.7248 24C41.7261 24 41.7274 24 41.7287 24C41.73 24 41.7313 24 41.7325 24C41.7338 24 41.7351 24 41.7363 24C41.7376 24 41.7388 24 41.7401 24C41.7413 24 41.7426 24 41.7438 24C41.7451 24 41.7463 24 41.7475 24C41.7487 24 41.75 24 41.7512 24C41.7524 24 41.7536 24 41.7548 24C41.756 24 41.7572 24 41.7584 24C41.7596 24 41.7608 24 41.762 24C41.7632 24 41.7643 24 41.7655 24C41.7667 24 41.7678 24 41.769 24C41.7702 24 41.7713 24 41.7725 24C41.7736 24 41.7748 24 41.7759 24C41.777 24 41.7782 24 41.7793 24C41.7804 24 41.7816 24 41.7827 24C41.7838 24 41.7849 24 41.786 24C41.7871 24 41.7882 24 41.7893 24C41.7904 24 41.7915 24 41.7926 24C41.7937 24 41.7948 24 41.7958 24C41.7969 24 41.798 24 41.799 24C41.8001 24 41.8012 24 41.8022 24C41.8033 24 41.8043 24 41.8054 24C41.8064 24 41.8074 24 41.8085 24C41.8095 24 41.8105 24 41.8116 24C41.8126 24 41.8136 24 41.8146 24C41.8156 24 41.8166 24 41.8176 24C41.8186 24 41.8196 24 41.8206 24C41.8216 24 41.8226 24 41.8236 24C41.8246 24 41.8256 24 41.8265 24C41.8275 24 41.8285 24 41.8294 24C41.8304 24 41.8313 24 41.8323 24C41.8332 24 41.8342 24 41.8351 24C41.8361 24 41.837 24 41.8379 24C41.8389 24 41.8398 24 41.8407 24C41.8417 24 41.8426 24 41.8435 24C41.8444 24 41.8453 24 41.8462 24C41.8471 24 41.848 24 41.8489 24C41.8498 24 41.8507 24 41.8516 24C41.8524 24 41.8533 24 41.8542 24C41.8551 24 41.8559 24 41.8568 24C41.8577 24 41.8585 24 41.8594 24C41.8602 24 41.8611 24 41.8619 24C41.8628 24 41.8636 24 41.8645 24C41.8653 24 41.8661 24 41.8669 24C41.8678 24 41.8686 24 41.8694 24C41.8702 24 41.871 24 41.8718 24C41.8727 24 41.8735 24 41.8743 24C41.8751 24 41.8758 24 41.8766 24C41.8774 24 41.8782 24 41.879 24C41.8798 24 41.8805 24 41.8813 24C41.8821 24 41.8828 24 41.8836 24C41.8844 24 41.8851 24 41.8859 24C41.8866 24 41.8874 24 41.8881 24C41.8889 24 41.8896 24 41.8903 24C41.8911 24 41.8918 24 41.8925 24C41.8933 24 41.894 24 41.8947 24C41.8954 24 41.8961 24 41.8968 24C41.8975 24 41.8982 24 41.8989 24C41.8996 24 41.9003 24 41.901 24C41.9017 24 41.9024 24 41.9031 24C41.9038 24 41.9044 24 41.9051 24C41.9058 24 41.9064 24 41.9071 24C41.9078 24 41.9084 24 41.9091 24C41.9097 24 41.9104 24 41.911 24C41.9117 24 41.9123 24 41.913 24C41.9136 24 41.9142 24 41.9149 24C41.9155 24 41.9161 24 41.9168 24C41.9174 24 41.918 24 41.9186 24C41.9192 24 41.9198 24 41.9204 24C41.921 24 41.9216 24 41.9222 24C41.9228 24 41.9234 24 41.924 24C41.9246 24 41.9252 24 41.9258 24C41.9263 24 41.9269 24 41.9275 24C41.9281 24 41.9286 24 41.9292 24C41.9298 24 41.9303 24 41.9309 24C41.9314 24 41.932 24 41.9325 24C41.9331 24 41.9336 24 41.9342 24C41.9347 24 41.9352 24 41.9358 24C41.9363 24 41.9368 24 41.9374 24C41.9379 24 41.9384 24 41.9389 24C41.9394 24 41.94 24 41.9405 24C41.941 24 41.9415 24 41.942 24C41.9425 24 41.943 24 41.9435 24C41.944 24 41.9444 24 41.9449 24C41.9454 24 41.9459 24 41.9464 24C41.9469 24 41.9473 24 41.9478 24C41.9483 24 41.9487 24 41.9492 24C41.9497 24 41.9501 24 41.9506 24C41.951 24 41.9515 24 41.9519 24C41.9524 24 41.9528 24 41.9533 24C41.9537 24 41.9541 24 41.9546 24C41.955 24 41.9554 24 41.9559 24C41.9563 24 41.9567 24 41.9571 24C41.9576 24 41.958 24 41.9584 24C41.9588 24 41.9592 24 41.9596 24C41.96 24 41.9604 24 41.9608 24C41.9612 24 41.9616 24 41.962 24C41.9624 24 41.9628 24 41.9632 24C41.9635 24 41.9639 24 41.9643 24C41.9647 24 41.965 24 41.9654 24C41.9658 24 41.9662 24 41.9665 24C41.9669 24 41.9672 24 41.9676 24C41.9679 24 41.9683 24 41.9687 24C41.969 24 41.9693 24 41.9697 24C41.97 24 41.9704 24 41.9707 24C41.971 24 41.9714 24 41.9717 24C41.972 24 41.9724 24 41.9727 24C41.973 24 41.9733 24 41.9736 24C41.974 24 41.9743 24 41.9746 24C41.9749 24 41.9752 24 41.9755 24C41.9758 24 41.9761 24 41.9764 24C41.9767 24 41.977 24 41.9773 24C41.9776 24 41.9778 24 41.9781 24C41.9784 24 41.9787 24 41.979 24C41.9793 24 41.9795 24 41.9798 24C41.9801 24 41.9803 24 41.9806 24C41.9809 24 41.9811 24 41.9814 24C41.9816 24 41.9819 24 41.9822 24C41.9824 24 41.9827 24 41.9829 24C41.9831 24 41.9834 24 41.9836 24C41.9839 24 41.9841 24 41.9843 24C41.9846 24 41.9848 24 41.985 24C41.9853 24 41.9855 24 41.9857 24C41.9859 24 41.9862 24 41.9864 24C41.9866 24 41.9868 24 41.987 24C41.9872 24 41.9874 24 41.9876 24C41.9878 24 41.9881 24 41.9883 24C41.9885 24 41.9886 24 41.9888 24C41.989 24 41.9892 24 41.9894 24C41.9896 24 41.9898 24 41.99 24C41.9902 24 41.9903 24 41.9905 24C41.9907 24 41.9909 24 41.991 24C41.9912 24 41.9914 24 41.9915 24C41.9917 24 41.9919 24 41.992 24C41.9922 24 41.9924 24 41.9925 24C41.9927 24 41.9928 24 41.993 24C41.9931 24 41.9933 24 41.9934 24C41.9936 24 41.9937 24 41.9938 24C41.994 24 41.9941 24 41.9942 24C41.9944 24 41.9945 24 41.9946 24C41.9948 24 41.9949 24 41.995 24C41.9951 24 41.9953 24 41.9954 24C41.9955 24 41.9956 24 41.9957 24C41.9959 24 41.996 24 41.9961 24C41.9962 24 41.9963 24 41.9964 24C41.9965 24 41.9966 24 41.9967 24C41.9968 24 41.9969 24 41.997 24C41.9971 24 41.9972 24 41.9973 24C41.9974 24 41.9974 24 41.9975 24C41.9976 24 41.9977 24 41.9978 24C41.9979 24 41.9979 24 41.998 24C41.9981 24 41.9982 24 41.9982 24C41.9983 24 41.9984 24 41.9984 24C41.9985 24 41.9986 24 41.9986 24C41.9987 24 41.9988 24 41.9988 24C41.9989 24 41.9989 24 41.999 24C41.999 24 41.9991 24 41.9991 24C41.9992 24 41.9992 24 41.9993 24C41.9993 24 41.9994 24 41.9994 24C41.9994 24 41.9995 24 41.9995 24C41.9996 24 41.9996 24 41.9996 24C41.9997 24 41.9997 24 41.9997 24C41.9997 24 41.9998 24 41.9998 24C41.9998 24 41.9998 24 41.9999 24C41.9999 24 41.9999 24 41.9999 24C41.9999 24 41.9999 24 41.9999 24C42 24 42 24 42 24C42 24 42 24 42 24C42 24 42 24 42 20C42 16 42 16 42 16C42 16 42 16 42 16C42 16 42 16 41.9999 16C41.9999 16 41.9999 16 41.9999 16C41.9999 16 41.9999 16 41.9999 16C41.9998 16 41.9998 16 41.9998 16C41.9998 16 41.9997 16 41.9997 16C41.9997 16 41.9997 16 41.9996 16C41.9996 16 41.9996 16 41.9995 16C41.9995 16 41.9994 16 41.9994 16C41.9994 16 41.9993 16 41.9993 16C41.9992 16 41.9992 16 41.9991 16C41.9991 16 41.999 16 41.999 16C41.9989 16 41.9989 16 41.9988 16C41.9988 16 41.9987 16 41.9986 16C41.9986 16 41.9985 16 41.9984 16C41.9984 16 41.9983 16 41.9982 16C41.9982 16 41.9981 16 41.998 16C41.9979 16 41.9979 16 41.9978 16C41.9977 16 41.9976 16 41.9975 16C41.9974 16 41.9974 16 41.9973 16C41.9972 16 41.9971 16 41.997 16C41.9969 16 41.9968 16 41.9967 16C41.9966 16 41.9965 16 41.9964 16C41.9963 16 41.9962 16 41.9961 16C41.996 16 41.9959 16 41.9957 16C41.9956 16 41.9955 16 41.9954 16C41.9953 16 41.9951 16 41.995 16C41.9949 16 41.9948 16 41.9946 16C41.9945 16 41.9944 16 41.9942 16C41.9941 16 41.994 16 41.9938 16C41.9937 16 41.9936 16 41.9934 16C41.9933 16 41.9931 16 41.993 16C41.9928 16 41.9927 16 41.9925 16C41.9924 16 41.9922 16 41.992 16C41.9919 16 41.9917 16 41.9915 16C41.9914 16 41.9912 16 41.991 16C41.9909 16 41.9907 16 41.9905 16C41.9903 16 41.9902 16 41.99 16C41.9898 16 41.9896 16 41.9894 16C41.9892 16 41.989 16 41.9888 16C41.9886 16 41.9885 16 41.9883 16C41.9881 16 41.9878 16 41.9876 16C41.9874 16 41.9872 16 41.987 16C41.9868 16 41.9866 16 41.9864 16C41.9862 16 41.9859 16 41.9857 16C41.9855 16 41.9853 16 41.985 16C41.9848 16 41.9846 16 41.9843 16C41.9841 16 41.9839 16 41.9836 16C41.9834 16 41.9831 16 41.9829 16C41.9827 16 41.9824 16 41.9822 16C41.9819 16 41.9816 16 41.9814 16C41.9811 16 41.9809 16 41.9806 16C41.9803 16 41.9801 16 41.9798 16C41.9795 16 41.9793 16 41.979 16C41.9787 16 41.9784 16 41.9781 16C41.9778 16 41.9776 16 41.9773 16C41.977 16 41.9767 16 41.9764 16C41.9761 16 41.9758 16 41.9755 16C41.9752 16 41.9749 16 41.9746 16C41.9743 16 41.974 16 41.9736 16C41.9733 16 41.973 16 41.9727 16C41.9724 16 41.972 16 41.9717 16C41.9714 16 41.971 16 41.9707 16C41.9704 16 41.97 16 41.9697 16C41.9693 16 41.969 16 41.9687 16C41.9683 16 41.9679 16 41.9676 16C41.9672 16 41.9669 16 41.9665 16C41.9662 16 41.9658 16 41.9654 16C41.965 16 41.9647 16 41.9643 16C41.9639 16 41.9635 16 41.9632 16C41.9628 16 41.9624 16 41.962 16C41.9616 16 41.9612 16 41.9608 16C41.9604 16 41.96 16 41.9596 16C41.9592 16 41.9588 16 41.9584 16C41.958 16 41.9576 16 41.9571 16C41.9567 16 41.9563 16 41.9559 16C41.9554 16 41.955 16 41.9546 16C41.9541 16 41.9537 16 41.9533 16C41.9528 16 41.9524 16 41.9519 16C41.9515 16 41.951 16 41.9506 16C41.9501 16 41.9497 16 41.9492 16C41.9487 16 41.9483 16 41.9478 16C41.9473 16 41.9469 16 41.9464 16C41.9459 16 41.9454 16 41.9449 16C41.9444 16 41.944 16 41.9435 16C41.943 16 41.9425 16 41.942 16C41.9415 16 41.941 16 41.9405 16C41.94 16 41.9394 16 41.9389 16C41.9384 16 41.9379 16 41.9374 16C41.9368 16 41.9363 16 41.9358 16C41.9352 16 41.9347 16 41.9342 16C41.9336 16 41.9331 16 41.9325 16C41.932 16 41.9314 16 41.9309 16C41.9303 16 41.9298 16 41.9292 16C41.9286 16 41.9281 16 41.9275 16C41.9269 16 41.9263 16 41.9258 16C41.9252 16 41.9246 16 41.924 16C41.9234 16 41.9228 16 41.9222 16C41.9216 16 41.921 16 41.9204 16C41.9198 16 41.9192 16 41.9186 16C41.918 16 41.9174 16 41.9168 16C41.9161 16 41.9155 16 41.9149 16C41.9142 16 41.9136 16 41.913 16C41.9123 16 41.9117 16 41.911 16C41.9104 16 41.9097 16 41.9091 16C41.9084 16 41.9078 16 41.9071 16C41.9064 16 41.9058 16 41.9051 16C41.9044 16 41.9038 16 41.9031 16C41.9024 16 41.9017 16 41.901 16C41.9003 16 41.8996 16 41.8989 16C41.8982 16 41.8975 16 41.8968 16C41.8961 16 41.8954 16 41.8947 16C41.894 16 41.8933 16 41.8925 16C41.8918 16 41.8911 16 41.8903 16C41.8896 16 41.8889 16 41.8881 16C41.8874 16 41.8866 16 41.8859 16C41.8851 16 41.8844 16 41.8836 16C41.8828 16 41.8821 16 41.8813 16C41.8805 16 41.8798 16 41.879 16C41.8782 16 41.8774 16 41.8766 16C41.8758 16 41.8751 16 41.8743 16C41.8735 16 41.8727 16 41.8718 16C41.871 16 41.8702 16 41.8694 16C41.8686 16 41.8678 16 41.8669 16C41.8661 16 41.8653 16 41.8645 16C41.8636 16 41.8628 16 41.8619 16C41.8611 16 41.8602 16 41.8594 16C41.8585 16 41.8577 16 41.8568 16C41.8559 16 41.8551 16 41.8542 16C41.8533 16 41.8524 16 41.8516 16C41.8507 16 41.8498 16 41.8489 16C41.848 16 41.8471 16 41.8462 16C41.8453 16 41.8444 16 41.8435 16C41.8426 16 41.8417 16 41.8407 16C41.8398 16 41.8389 16 41.8379 16C41.837 16 41.8361 16 41.8351 16C41.8342 16 41.8332 16 41.8323 16C41.8313 16 41.8304 16 41.8294 16C41.8285 16 41.8275 16 41.8265 16C41.8256 16 41.8246 16 41.8236 16C41.8226 16 41.8216 16 41.8206 16C41.8196 16 41.8186 16 41.8176 16C41.8166 16 41.8156 16 41.8146 16C41.8136 16 41.8126 16 41.8116 16C41.8105 16 41.8095 16 41.8085 16C41.8074 16 41.8064 16 41.8054 16C41.8043 16 41.8033 16 41.8022 16C41.8012 16 41.8001 16 41.799 16C41.798 16 41.7969 16 41.7958 16C41.7948 16 41.7937 16 41.7926 16C41.7915 16 41.7904 16 41.7893 16C41.7882 16 41.7871 16 41.786 16C41.7849 16 41.7838 16 41.7827 16C41.7816 16 41.7804 16 41.7793 16C41.7782 16 41.777 16 41.7759 16C41.7748 16 41.7736 16 41.7725 16C41.7713 16 41.7702 16 41.769 16C41.7678 16 41.7667 16 41.7655 16C41.7643 16 41.7632 16 41.762 16C41.7608 16 41.7596 16 41.7584 16C41.7572 16 41.756 16 41.7548 16C41.7536 16 41.7524 16 41.7512 16C41.75 16 41.7487 16 41.7475 16C41.7463 16 41.7451 16 41.7438 16C41.7426 16 41.7413 16 41.7401 16C41.7388 16 41.7376 16 41.7363 16C41.7351 16 41.7338 16 41.7325 16C41.7313 16 41.73 16 41.7287 16C41.7274 16 41.7261 16 41.7248 16C41.7235 16 41.7222 16 41.7209 16C41.7196 16 41.7183 16 41.717 16C41.7157 16 41.7144 16 41.713 16C41.7117 16 41.7104 16 41.709 16C41.7077 16 41.7063 16 41.705 16C41.7036 16 41.7023 16 41.7009 16C41.6995 16 41.6982 16 41.6968 16C41.6954 16 41.694 16 41.6927 16C41.6913 16 41.6899 16 41.6885 16C41.6871 16 41.6857 16 41.6843 16C41.6829 16 41.6814 16 41.68 16C41.6786 16 41.6772 16 41.6757 16C41.6743 16 41.6729 16 41.6714 16C41.67 16 41.6685 16 41.667 16C41.6656 16 41.6641 16 41.6627 16C41.6612 16 41.6597 16 41.6582 16C41.6567 16 41.6553 16 41.6538 16C41.6523 16 41.6508 16 41.6493 16C41.6477 16 41.6462 16 41.6447 16C41.6432 16 41.6417 16 41.6401 16C41.6386 16 41.6371 16 41.6355 16C41.634 16 41.6324 16 41.6309 16C41.6293 16 41.6278 16 41.6262 16C41.6246 16 41.623 16 41.6215 16C41.6199 16 41.6183 16 41.6167 16C41.6151 16 41.6135 16 41.6119 16C41.6103 16 41.6087 16 41.6071 16C41.6054 16 41.6038 16 41.6022 16C41.6006 16 41.5989 16 41.5973 16C41.5956 16 41.594 16 41.5923 16C41.5907 16 41.589 16 41.5873 16C41.5857 16 41.584 16 41.5823 16C41.5806 16 41.5789 16 41.5772 16C41.5755 16 41.5738 16 41.5721 16C41.5704 16 41.5687 16 41.567 16C41.5653 16 41.5635 16 41.5618 16C41.5601 16 41.5583 16 41.5566 16C41.5548 16 41.5531 16 41.5513 16C41.5496 16 41.5478 16 41.546 16C41.5442 16 41.5425 16 41.5407 16C41.5389 16 41.5371 16 41.5353 16C41.5335 16 41.5317 16 41.5299 16C41.5281 16 41.5262 16 41.5244 16C41.5226 16 41.5208 16 41.5189 16C41.5171 16 41.5152 16 41.5134 16C41.5115 16 41.5097 16 41.5078 16C41.5059 16 41.5041 16 41.5022 16C41.5003 16 41.4984 16 41.4965 16C41.4946 16 41.4927 16 41.4908 16C41.4889 16 41.487 16 41.4851 16C41.4832 16 41.4812 16 41.4793 16C41.4774 16 41.4754 16 41.4735 16C41.4715 16 41.4696 16 41.4676 16C41.4656 16 41.4637 16 41.4617 16C41.4597 16 41.4577 16 41.4557 16C41.4538 16 41.4518 16 41.4498 16C41.4477 16 41.4457 16 41.4437 16C41.4417 16 41.4397 16 41.4376 16C41.4356 16 41.4336 16 41.4315 16C41.4295 16 41.4274 16 41.4254 16C41.4233 16 41.4212 16 41.4192 16C41.4171 16 41.415 16 41.4129 16C41.4108 16 41.4087 16 41.4066 16C41.4045 16 41.4024 16 41.4003 16C41.3982 16 41.3961 16 41.3939 16C41.3918 16 41.3897 16 41.3875 16C41.3854 16 41.3832 16 41.3811 16C41.3789 16 41.3767 16 41.3746 16C41.3724 16 41.3702 16 41.368 16C41.3658 16 41.3636 16 41.3614 16C41.3592 16 41.357 16 41.3548 16C41.3526 16 41.3504 16 41.3481 16C41.3459 16 41.3437 16 41.3414 16C41.3392 16 41.3369 16 41.3347 16C41.3324 16 41.3301 16 41.3279 16C41.3256 16 41.3233 16 41.321 16C41.3187 16 41.3164 16 41.3141 16C41.3118 16 41.3095 16 41.3072 16C41.3048 16 41.3025 16 41.3002 16C41.2978 16 41.2955 16 41.2932 16C41.2908 16 41.2884 16 41.2861 16C41.2837 16 41.2813 16 41.279 16C41.2766 16 41.2742 16 41.2718 16C41.2694 16 41.267 16 41.2646 16C41.2622 16 41.2598 16 41.2573 16C41.2549 16 41.2525 16 41.25 16C41.2476 16 41.2451 16 41.2427 16C41.2402 16 41.2378 16 41.2353 16C41.2328 16 41.2303 16 41.2278 16C41.2254 16 41.2229 16 41.2204 16C41.2179 16 41.2153 16 41.2128 16C41.2103 16 41.2078 16 41.2053 16C41.2027 16 41.2002 16 41.1976 16C41.1951 16 41.1925 16 41.19 16C41.1874 16 41.1848 16 41.1822 16C41.1797 16 41.1771 16 41.1745 16C41.1719 16 41.1693 16 41.1667 16C41.164 16 41.1614 16 41.1588 16C41.1562 16 41.1535 16 41.1509 16C41.1483 16 41.1456 16 41.1429 16C41.1403 16 41.1376 16 41.1349 16C41.1323 16 41.1296 16 41.1269 16C41.1242 16 41.1215 16 41.1188 16C41.1161 16 41.1134 16 41.1106 16C41.1079 16 41.1052 16 41.1025 16C41.0997 16 41.097 16 41.0942 16C41.0915 16 41.0887 16 41.0859 16C41.0831 16 41.0804 16 41.0776 16C41.0748 16 41.072 16 41.0692 16C41.0664 16 41.0636 16 41.0608 16C41.0579 16 41.0551 16 41.0523 16C41.0494 16 41.0466 16 41.0437 16C41.0409 16 41.038 16 41.0351 16C41.0323 16 41.0294 16 41.0265 16C41.0236 16 41.0207 16 41.0178 16C41.0149 16 41.012 16 41.0091 16C41.0062 16 41.0033 16 41.0003 16C40.9974 16 40.9944 16 40.9915 16C40.9885 16 40.9856 16 40.9826 16C40.9796 16 40.9767 16 40.9737 16C40.9707 16 40.9677 16 40.9647 16C40.9617 16 40.9587 16 40.9557 16C40.9526 16 40.9496 16 40.9466 16C40.9435 16 40.9405 16 40.9374 16C40.9344 16 40.9313 16 40.9282 16C40.9252 16 40.9221 16 40.919 16C40.9159 16 40.9128 16 40.9097 16C40.9066 16 40.9035 16 40.9004 16C40.8973 16 40.8941 16 40.891 16C40.8879 16 40.8847 16 40.8816 16C40.8784 16 40.8752 16 40.8721 16C40.8689 16 40.8657 16 40.8625 16C40.8593 16 40.8561 16 40.8529 16C40.8497 16 40.8465 16 40.8433 16C40.84 16 40.8368 16 40.8336 16C40.8303 16 40.8271 16 40.8238 16C40.8205 16 40.8173 16 40.814 16C40.8107 16 40.8074 16 40.8041 16C40.8008 16 40.7975 16 40.7942 16C40.7909 16 40.7876 16 40.7843 16C40.7809 16 40.7776 16 40.7742 16C40.7709 16 40.7675 16 40.7642 16C40.7608 16 40.7574 16 40.7541 16C40.7507 16 40.7473 16 40.7439 16C40.7405 16 40.7371 16 40.7336 16C40.7302 16 40.7268 16 40.7234 16C40.7199 16 40.7165 16 40.713 16C40.7096 16 40.7061 16 40.7026 16C40.6992 16 40.6957 16 40.6922 16C40.6887 16 40.6852 16 40.6817 16C40.6782 16 40.6746 16 40.6711 16C40.6676 16 40.6641 16 40.6605 16C40.657 16 40.6534 16 40.6498 16C40.6463 16 40.6427 16 40.6391 16C40.6355 16 40.632 16 40.6284 16C40.6248 16 40.6211 16 40.6175 16C40.6139 16 40.6103 16 40.6066 16C40.603 16 40.5994 16 40.5957 16C40.592 16 40.5884 16 40.5847 16C40.581 16 40.5773 16 40.5737 16C40.57 16 40.5663 16 40.5625 16C40.5588 16 40.5551 16 40.5514 16C40.5477 16 40.5439 16 40.5402 16C40.5364 16 40.5327 16 40.5289 16C40.5251 16 40.5213 16 40.5176 16C40.5138 16 40.51 16 40.5062 16C40.5024 16 40.4986 16 40.4947 16C40.4909 16 40.4871 16 40.4832 16C40.4794 16 40.4755 16 40.4717 16C40.4678 16 40.4639 16 40.4601 16C40.4562 16 40.4523 16 40.4484 16C40.4445 16 40.4406 16 40.4367 16C40.4327 16 40.4288 16 40.4249 16C40.4209 16 40.417 16 40.413 16C40.4091 16 40.4051 16 40.4011 16C40.3972 16 40.3932 16 40.3892 16C40.3852 16 40.3812 16 40.3772 16C40.3731 16 40.3691 16 40.3651 16C40.361 16 40.357 16 40.3529 16C40.3489 16 40.3448 16 40.3408 16C40.3367 16 40.3326 16 40.3285 16C40.3244 16 40.3203 16 40.3162 16C40.3121 16 40.308 16 40.3038 16C40.2997 16 40.2956 16 40.2914 16C40.2873 16 40.2831 16 40.2789 16C40.2748 16 40.2706 16 40.2664 16C40.2622 16 40.258 16 40.2538 16C40.2496 16 40.2454 16 40.2411 16C40.2369 16 40.2327 16 40.2284 16C40.2241 16 40.2199 16 40.2156 16C40.2113 16 40.2071 16 40.2028 16C40.1985 16 40.1942 16 40.1899 16C40.1856 16 40.1813 16 40.1769 16C40.1726 16 40.1683 16 40.1639 16C40.1596 16 40.1552 16 40.1508 16C40.1464 16 40.1421 16 40.1377 16C40.1333 16 40.1289 16 40.1245 16C40.1201 16 40.1156 16 40.1112 16C40.1068 16 40.1023 16 40.0979 16C40.0934 16 40.089 16 40.0845 16C40.08 16 40.0756 16 40.0711 16C40.0666 16 40.0621 16 40.0576 16C40.053 16 40.0485 16 40.044 16C40.0395 16 40.0349 16 40.0304 16C40.0258 16 40.0212 16 40.0167 16C40.0121 16 40.0075 16 40.0029 16C39.9983 16 39.9937 16 39.9891 16C39.9845 16 39.9799 16 39.9752 16C39.9706 16 39.966 16 39.9613 16C39.9566 16 39.952 16 39.9473 16C39.9426 16 39.9379 16 39.9332 16C39.9285 16 39.9238 16 39.9191 16C39.9144 16 39.9097 16 39.9049 16C39.9002 16 39.8954 16 39.8907 16C39.8859 16 39.8811 16 39.8764 16C39.8716 16 39.8668 16 39.862 16C39.8572 16 39.8524 16 39.8475 16C39.8427 16 39.8379 16 39.833 16C39.8282 16 39.8233 16 39.8185 16C39.8136 16 39.8087 16 39.8038 16C39.7989 16 39.7941 16 39.7891 16C39.7842 16 39.7793 16 39.7744 16C39.7695 16 39.7645 16 39.7596 16C39.7546 16 39.7496 16 39.7447 16C39.7397 16 39.7347 16 39.7297 16C39.7247 16 39.7197 16 39.7147 16C39.7097 16 39.7047 16 39.6996 16C39.6946 16 39.6895 16 39.6845 16C39.6794 16 39.6744 16 39.6693 16C39.6642 16 39.6591 16 39.654 16C39.6489 16 39.6438 16 39.6387 16C39.6335 16 39.6284 16 39.6233 16C39.6181 16 39.613 16 39.6078 16C39.6026 16 39.5974 16 39.5923 16C39.5871 16 39.5819 16 39.5767 16C39.5714 16 39.5662 16 39.561 16C39.5558 16 39.5505 16 39.5453 16C39.54 16 39.5347 16 39.5295 16C39.5242 16 39.5189 16 39.5136 16C39.5083 16 39.503 16 39.4977 16C39.4923 16 39.487 16 39.4817 16C39.4763 16 39.471 16 39.4656 16C39.4602 16 39.4549 16 39.4495 16C39.4441 16 39.4387 16 39.4333 16C39.4279 16 39.4224 16 39.417 16C39.4116 16 39.4061 16 39.4007 16C39.3952 16 39.3898 16 39.3843 16C39.3788 16 39.3733 16 39.3678 16C39.3623 16 39.3568 16 39.3513 16C39.3458 16 39.3402 16 39.3347 16C39.3291 16 39.3236 16 39.318 16C39.3124 16 39.3069 16 39.3013 16C39.2957 16 39.2901 16 39.2845 16C39.2789 16 39.2732 16 39.2676 16C39.262 16 39.2563 16 39.2507 16C39.245 16 39.2393 16 39.2336 16C39.228 16 39.2223 16 39.2166 16C39.2109 16 39.2051 16 39.1994 16C39.1937 16 39.188 16 39.1822 16C39.1765 16 39.1707 16 39.1649 16C39.1591 16 39.1534 16 39.1476 16C39.1418 16 39.136 16 39.1301 16C39.1243 16 39.1185 16 39.1127 16C39.1068 16 39.101 16 39.0951 16C39.0892 16 39.0833 16 39.0775 16C39.0716 16 39.0657 16 39.0598 16C39.0538 16 39.0479 16 39.042 16C39.036 16 39.0301 16 39.0241 16C39.0182 16 39.0122 16 39.0062 16C39.0002 16 38.9943 16 38.9882 16C38.9822 16 38.9762 16 38.9702 16C38.9642 16 38.9581 16 38.9521 16C38.946 16 38.94 16 38.9339 16C38.9278 16 38.9217 16 38.9156 16C38.9095 16 38.9034 16 38.8973 16C38.8912 16 38.885 16 38.8789 16C38.8727 16 38.8666 16 38.8604 16C38.8542 16 38.848 16 38.8418 16C38.8357 16 38.8294 16 38.8232 16C38.817 16 38.8108 16 38.8045 16C38.7983 16 38.792 16 38.7858 16C38.7795 16 38.7732 16 38.7669 16C38.7606 16 38.7543 16 38.748 16C38.7417 16 38.7354 16 38.729 16C38.7227 16 38.7164 16 38.71 16C38.7036 16 38.6973 16 38.6909 16C38.6845 16 38.6781 16 38.6717 16C38.6653 16 38.6588 16 38.6524 16C38.646 16 38.6395 16 38.6331 16C38.6266 16 38.6201 16 38.6136 16C38.6072 16 38.6007 16 38.5941 16C38.5876 16 38.5811 16 38.5746 16C38.568 16 38.5615 16 38.5549 16C38.5484 16 38.5418 16 38.5352 16C38.5287 16 38.5221 16 38.5155 16C38.5088 16 38.5022 16 38.4956 16C38.489 16 38.4823 16 38.4757 16C38.469 16 38.4623 16 38.4557 16C38.449 16 38.4423 16 38.4356 16C38.4289 16 38.4222 16 38.4154 16C38.4087 16 38.402 16 38.3952 16C38.3884 16 38.3817 16 38.3749 16C38.3681 16 38.3613 16 38.3545 16C38.3477 16 38.3409 16 38.3341 16C38.3272 16 38.3204 16 38.3135 16C38.3067 16 38.2998 16 38.2929 16C38.2861 16 38.2792 16 38.2723 16C38.2653 16 38.2584 16 38.2515 16C38.2446 16 38.2376 16 38.2307 16C38.2237 16 38.2167 16 38.2098 16C38.2028 16 38.1958 16 38.1888 16C38.1818 16 38.1748 16 38.1677 16C38.1607 16 38.1537 16 38.1466 16C38.1395 16 38.1325 16 38.1254 16C38.1183 16 38.1112 16 38.1041 16C38.097 16 38.0899 16 38.0827 16C38.0756 16 38.0685 16 38.0613 16C38.0541 16 38.047 16 38.0398 16C38.0326 16 38.0254 16 38.0182 16C38.011 16 38.0038 16 37.9965 16C37.9893 16 37.982 16 37.9748 16C37.9675 16 37.9602 16 37.953 16C37.9457 16 37.9384 16 37.9311 16C37.9237 16 37.9164 16 37.9091 16C37.9017 16 37.8944 16 37.887 16C37.8797 16 37.8723 16 37.8649 16C37.8575 16 37.8501 16 37.8427 16C37.8353 16 37.8278 16 37.8204 16C37.8129 16 37.8055 16 37.798 16C37.7905 16 37.7831 16 37.7756 16C37.7681 16 37.7606 16 37.753 16C37.7455 16 37.738 16 37.7304 16C37.7229 16 37.7153 16 37.7078 16C37.7002 16 37.6926 16 37.685 16C37.6774 16 37.6698 16 37.6622 16C37.6545 16 37.6469 16 37.6392 16C37.6316 16 37.6239 16 37.6162 16C37.6086 16 37.6009 16 37.5932 16C37.5855 16 37.5777 16 37.57 16C37.5623 16 37.5545 16 37.5468 16C37.539 16 37.5312 16 37.5234 16C37.5157 16 37.5079 16 37.5001 16V24Z" fill="white"/>
<path d="M22 39.5H41" stroke="white" stroke-width="8" stroke-linecap="round"/>
<circle cx="32" cy="32" r="30" stroke="white" stroke-width="4"/>
</svg>
